<svg width="120" height="66" viewBox="0 0 120 66" fill="none" xmlns="http://www.w3.org/2000/svg">
<path d="M51.4796 0L53.0855 0.223048C52.7881 1.9777 52.6394 3.19703 52.6394 3.88104C52.6394 4.77323 53.1747 5.3829 54.2454 5.71004C55.3457 6.00743 57.4275 6.15613 60.4907 6.15613C62.5725 6.15613 65.4424 6.00743 69.1004 5.71004L80.4758 4.72862C84.4312 4.40149 88.0446 4.23792 91.316 4.23792C100.595 4.23792 107.688 6.11152 112.595 9.85874C117.532 13.5762 120 18.9294 120 25.9182C120 31.0929 118.781 36.3717 116.342 41.7546C113.933 47.1375 110.677 51.8216 106.572 55.8067C99.881 62.29 92.5799 65.5316 84.6691 65.5316C79.5242 65.5316 75.2565 64.3569 71.8662 62.0074C68.5056 59.6283 64.8178 55.2565 60.803 48.8922L57.5019 43.6729L57.1004 43.0037L56.2082 43.316C47.8216 46.052 41.5762 47.4201 37.4721 47.4201C33.1301 47.4201 29.6357 46.2305 26.9888 43.8513C24.342 41.4721 23.0186 38.3494 23.0186 34.4833C23.0186 28.9517 25.4572 24.6245 30.3346 21.5019C33.6357 19.3606 37.0409 18.29 40.5502 18.29C44.0892 18.29 47.1375 19.5985 49.6952 22.2156C52.2825 24.803 56.0297 30.3494 60.9368 38.855L61.4721 39.7472L63.1227 39.1227C74.1264 34.9591 84.803 30.513 95.1524 25.7844L105.323 21.145L106.706 20.5204C106.825 20.9368 106.885 21.3234 106.885 21.6803C106.885 23.6431 105.799 27.6431 103.628 33.6803C101.636 39.2119 100.639 42.4981 100.639 43.539C100.639 44.4312 101.204 44.8773 102.335 44.8773C102.9 44.8773 103.703 44.7138 104.743 44.3866L105.234 45.9926L104.208 46.3494C101.77 47.2416 98.8699 48.223 95.5093 49.2937L94.3494 49.6952C94.4089 48.9219 94.5428 48.1041 94.7509 47.2416L95.1078 45.7249C95.5242 44 96.5948 40.6691 98.3197 35.7323C99.8959 31.1822 100.684 28.5502 100.684 27.8364C100.684 26.7063 100.238 26.1413 99.3457 26.1413C98.8104 26.1413 97.8736 26.4387 96.5353 27.0335L93.2788 28.461L83.2416 32.8327C76.1041 35.9257 69.487 38.5874 63.3903 40.8178L62.3643 41.1747C66.6171 48.6989 70.6915 54.0967 74.5874 57.368C78.4833 60.6097 82.8104 62.2305 87.5688 62.2305C91.8216 62.2305 95.9257 61.0855 99.881 58.7955C103.866 56.5056 107.123 53.3978 109.651 49.4721C113.963 42.7509 116.119 35.881 116.119 28.8625C116.119 22.7361 113.963 18.0223 109.651 14.7212C105.338 11.3903 99.1822 9.72491 91.1822 9.72491C88.3271 9.72491 84.9071 9.90335 80.9219 10.2602L65.6208 11.7323C63.0037 11.9703 60.2974 12.0892 57.5019 12.0892C54.1115 12.0892 51.2416 11.6729 48.8922 10.8401L49.1152 9.99257C49.5613 8.38662 49.948 6.88476 50.2751 5.48699L51.3011 0.713755L51.4796 0ZM56.1636 41.5316L55.1375 39.8364C50.7658 32.6394 47.316 27.8662 44.7881 25.5167C42.2602 23.1673 39.2862 21.9926 35.8662 21.9926C32.9814 21.9926 30.4833 23.0632 28.3717 25.2045C26.2602 27.316 25.2045 29.8141 25.2045 32.6989C25.2045 36.2677 26.5427 39.2119 29.2193 41.5316C31.9256 43.8216 35.3457 44.9665 39.4796 44.9665C44.2379 44.9665 49.7993 43.8216 56.1636 41.5316Z" fill="black"/>
<path d="M2.81041 45.0111H8.87732H10.6617C13.0409 45.0111 15.0186 44.6097 16.5948 43.8067C16.6245 43.7769 16.684 43.7472 16.7732 43.7175L16.6394 43.9851L16.3271 44.6989C15.1375 47.4647 12.6097 48.8476 8.7435 48.8476H6.64684H4.41636C3.37547 48.8476 2.66171 48.9517 2.27509 49.1598C1.88848 49.3383 1.48699 49.7695 1.07063 50.4535L0.802974 50.8996H0L2.81041 45.0111Z" fill="black"/>
</svg>
